<svg version="1.1"
	 id="svg8" xmlns:cc="http://creativecommons.org/ns#" xmlns:dc="http://purl.org/dc/elements/1.1/" xmlns:inkscape="http://www.inkscape.org/namespaces/inkscape" xmlns:rdf="http://www.w3.org/1999/02/22-rdf-syntax-ns#" xmlns:sodipodi="http://sodipodi.sourceforge.net/DTD/sodipodi-0.dtd" xmlns:svg="http://www.w3.org/2000/svg"
	 xmlns="http://www.w3.org/2000/svg" xmlns:xlink="http://www.w3.org/1999/xlink" x="0px" y="0px" viewBox="0 0 80 80"
	 style="enable-background:new 0 0 80 80;" xml:space="preserve">
<style type="text/css">
	.st0{fill:#32DE84;}
</style>
<sodipodi:namedview  bordercolor="#666666" borderopacity="1.0" fit-margin-bottom="0" fit-margin-left="0" fit-margin-right="0" fit-margin-top="0" id="base" inkscape:current-layer="layer1" inkscape:cx="1292.0825" inkscape:cy="333.20379" inkscape:document-units="px" inkscape:pageopacity="0.0" inkscape:pageshadow="2" inkscape:window-height="1017" inkscape:window-maximized="1" inkscape:window-width="1920" inkscape:window-x="1912" inkscape:window-y="-8" inkscape:zoom="0.175" pagecolor="#ffffff" showgrid="false" units="px">
	<inkscape:grid  id="grid823" originx="-66.971031" originy="195.86492" type="xygrid"></inkscape:grid>
</sodipodi:namedview>
<g id="layer1" transform="translate(-66.970994,-261.91674)" inkscape:groupmode="layer" inkscape:label="Layer 1">
	<g id="g80302" transform="matrix(1.3212521,0,0,1.3212521,480.52565,-75.040147)">
		<path id="path825" inkscape:connector-curvature="0" d="M-308.5,302.4c-2.1,0-4.2,1.6-4.2,4.5c0,2.6,1.9,4.5,4.2,4.5
			c1.9,0,2.8-1.3,2.8-1.3v0.6c0,0.3,0.2,0.6,0.6,0.6h1.4v-8.7h-1.9v1.1C-305.7,303.7-306.6,302.4-308.5,302.4L-308.5,302.4z
			 M-308.1,304.2c1.7,0,2.6,1.5,2.6,2.8c0,1.4-1.1,2.8-2.6,2.8c-1.3,0-2.6-1-2.6-2.8C-310.7,305.3-309.6,304.2-308.1,304.2z"/>
		<path id="path829" inkscape:connector-curvature="0" sodipodi:nodetypes="ccccccccccccccc" d="M-301.1,311.3
			c-0.3,0-0.6-0.2-0.6-0.6v-8.1h1.9v1.1c0.4-0.7,1.3-1.3,2.6-1.3c2.2,0,3.3,1.7,3.3,3.3v5.6h-1.3c-0.4,0-0.6-0.3-0.6-0.6v-4.5
			c0-0.9-0.5-2-1.8-2c-1.4,0-2.2,1.3-2.2,2.5v4.6H-301.1z"/>
		<path id="path833" inkscape:connector-curvature="0" sodipodi:nodetypes="ssscssccccssscss" d="M-288.1,302.4
			c-2.1,0-4.2,1.6-4.2,4.5c0,2.6,1.9,4.5,4.2,4.5c1.9,0,2.8-1.3,2.8-1.3v0.6c0,0.3,0.2,0.6,0.6,0.6h1.4v-13h-1.9v5.4
			C-285.4,303.7-286.2,302.4-288.1,302.4L-288.1,302.4z M-287.8,304.2c1.7,0,2.6,1.5,2.6,2.8c0,1.4-1.1,2.8-2.6,2.8
			c-1.3,0-2.6-1-2.6-2.8C-290.3,305.3-289.2,304.2-287.8,304.2z"/>
		<path id="path835" inkscape:connector-curvature="0" sodipodi:nodetypes="cccccccccccc" d="M-280.7,311.3c-0.3,0-0.6-0.2-0.6-0.6
			v-8.1h1.9v1.4c0.3-0.8,1.1-1.5,2.3-1.5c0.4,0,0.7,0.1,0.7,0.1v2c0,0-0.4-0.2-0.9-0.2c-1.4,0-2.1,1.3-2.1,2.5v4.4H-280.7z"/>
		<path id="path837" inkscape:connector-curvature="0" sodipodi:nodetypes="cccccc" d="M-264.6,311.3c-0.3,0-0.6-0.2-0.6-0.6v-8.1
			h1.9v8.7H-264.6z"/>
		<path id="path839" inkscape:connector-curvature="0" sodipodi:nodetypes="ssscssccccssscss" d="M-257.5,302.4
			c-2.1,0-4.2,1.6-4.2,4.5c0,2.6,1.9,4.5,4.2,4.5c1.9,0,2.8-1.3,2.8-1.3v0.6c0,0.3,0.2,0.6,0.6,0.6h1.4v-13h-1.9v5.4
			C-254.7,303.7-255.6,302.4-257.5,302.4L-257.5,302.4z M-257.2,304.2c1.7,0,2.6,1.5,2.6,2.8c0,1.4-1.1,2.8-2.6,2.8
			c-1.3,0-2.6-1-2.6-2.8C-259.7,305.3-258.6,304.2-257.2,304.2z"/>
		<circle id="path841" cx="-264.2" cy="299.4" r="1.3"/>
		<path id="path843" inkscape:connector-curvature="0" d="M-271.2,302.4c-2.2,0-4.5,1.6-4.5,4.5c0,2.7,2,4.5,4.5,4.5
			c3.1,0,4.6-2.5,4.6-4.5C-266.6,304.4-268.6,302.4-271.2,302.4L-271.2,302.4z M-271.2,304.2c1.5,0,2.6,1.2,2.6,2.7
			c0,1.5-1.2,2.7-2.6,2.7c-1.3,0-2.6-1.1-2.6-2.7C-273.8,305.3-272.6,304.2-271.2,304.2L-271.2,304.2z"/>
	</g>
	<path id="path80319" inkscape:connector-curvature="0" class="st0" d="M126.3,280.8l6.6-11.4c0.4-0.6,0.1-1.4-0.5-1.8
		c-0.6-0.4-1.4-0.2-1.8,0.5l-6.6,11.5c-5.1-2.3-10.8-3.6-16.9-3.6c-6.1,0-11.8,1.3-16.9,3.6l-6.6-11.5c-0.4-0.6-1.2-0.9-1.8-0.5
		c-0.6,0.4-0.9,1.2-0.5,1.8l6.6,11.4c-11.3,6.1-19,17.6-20.2,31h79C145.2,298.3,137.6,286.9,126.3,280.8z M88.8,300.6
		c-1.8,0-3.3-1.5-3.3-3.3c0-1.8,1.5-3.3,3.3-3.3c1.8,0,3.3,1.5,3.3,3.3C92.2,299.1,90.7,300.6,88.8,300.6z M125.1,300.6
		c-1.8,0-3.3-1.5-3.3-3.3c0-1.8,1.5-3.3,3.3-3.3c1.8,0,3.3,1.5,3.3,3.3C128.5,299.1,127,300.6,125.1,300.6z"/>
</g>
</svg>