<svg version="1.1" id="Layer_1" xmlns="http://www.w3.org/2000/svg" xmlns:xlink="http://www.w3.org/1999/xlink" x="0px" y="0px"
	 viewBox="0 0 80 80" style="enable-background:new 0 0 80 80;" xml:space="preserve">
<style type="text/css">
	.st0{fill:url(#SVGID_1_);}
	.st1{fill:#FFFFFF;}
</style>
<g>
	
		<linearGradient id="SVGID_1_" gradientUnits="userSpaceOnUse" x1="-34.707" y1="114.8633" x2="-34.707" y2="114.5508" gradientTransform="matrix(256 0 0 -256 8925 29405)">
		<stop  offset="0" style="stop-color:#17C9FB"/>
		<stop  offset="1" style="stop-color:#1A74E8"/>
	</linearGradient>
	<path class="st0" d="M17.5,0h45C72.2,0,80,7.8,80,17.5v45C80,72.2,72.2,80,62.5,80h-45C7.8,80,0,72.2,0,62.5v-45
		C0,7.8,7.8,0,17.5,0z"/>
	<path class="st1" d="M25.6,58.1L25.6,58.1l-2.7,4.7c-1,1.7-3.2,2.3-4.9,1.3c-1.7-1-2.3-3.2-1.3-4.9l2-3.5l0.2-0.3
		c0.3-0.5,1.2-1.4,2.9-1.2c0,0,4,0.4,4.3,2.5C26.1,56.7,26.1,57.4,25.6,58.1L25.6,58.1z M64.4,46h-8.5c-0.6,0-0.8-0.2-0.9-0.4l0,0
		l-9.1-15.8l0,0L45.3,29c-0.9-1.4-2.3,2.1-2.3,2.1c-1.7,3.9,0.2,8.4,0.9,9.7l12.7,22c1,1.7,3.2,2.3,4.9,1.3c1.7-1,2.3-3.2,1.3-4.9
		l-3.2-5.5c-0.1-0.1-0.2-0.5,0.5-0.5h4.3c2,0,3.6-1.6,3.6-3.6S66.4,46,64.4,46z M47.9,50.9c0,0,0.5,2.3-1.3,2.3h-1.8v0H15
		c-2,0-3.6-1.6-3.6-3.6S13,46,15,46h8.1c1.3-0.1,1.6-0.8,1.6-0.8l0,0l10.6-18.3l0,0c0.2-0.4,0-0.7,0-0.7L31.8,20
		c-1-1.7-0.4-3.9,1.3-4.9c1.7-1,3.9-0.4,4.9,1.3l1.6,2.8l1.6-2.8c1-1.7,3.2-2.3,4.9-1.3c1.7,1,2.3,3.2,1.3,4.9L32.9,45.5
		c-0.1,0.2-0.1,0.4,0.4,0.4h8.8l0,0.1C42.1,46.1,47.2,46.1,47.9,50.9z"/>
</g>
</svg>