<svg version="1.1" id="svg4525" xmlns="http://www.w3.org/2000/svg" xmlns:xlink="http://www.w3.org/1999/xlink" x="0px" y="0px"
	 viewBox="0 0 80 80" style="enable-background:new 0 0 80 80;" xml:space="preserve">
<style type="text/css">
	.st0{fill:#D4B830;}
	.st1{opacity:0.986;fill:#EBEBEB;fill-opacity:0;enable-background:new    ;}
	.st2{opacity:0.986;fill:#EBEBEB;fill-opacity:0.9216;enable-background:new    ;}
	.st3{fill:#FDD83C;}
</style>
<g id="g5193" transform="translate(4.988 -113.385)">
	<path id="path5113" class="st0" d="M6.7,185l-6.5-71.2l69.6,0l-6.4,71.1L35,193L6.7,185z M58.2,181.1l5.4-60.9H35.1l0.2,67.2
		L58.2,181.1z M32.4,129.1h-6.9l-0.1,36.5L12,161.9l0,8.3l20.4,5.5V129.1L32.4,129.1z"/>
	<path id="path5159" class="st1" d="M30.1,175.1c-0.9-0.3-5.3-1.5-9.8-2.7l-8.2-2.2v-4.1c0-4,0-4.1,0.4-4c0.2,0.1,3.2,0.9,6.6,1.8
		l6.2,1.7l0.1-18.2l0.1-18.2h6.8v23.1c0,18.4-0.1,23.1-0.2,23.1C31.9,175.5,31,175.3,30.1,175.1L30.1,175.1z"/>
	<path id="path5157" class="st2" d="M12,170.2l0-8.3c0,0,8.6,2.4,13.4,3.7l0.1-36.4h6.9v46.6L12,170.2L12,170.2z"/>
	<path id="path5117" class="st3" d="M35.1,120.1h28.5l-5.4,60.9l-23.1,6.3V120.1z M56.7,170.8l1.9-22.8l-13.9,1.5v-12.2l14.8-0.1
		l0.6-8.3l-22.3,0.1l0.3,30.3l13.5-2.3l-0.2,6.7l-13.6,3.6l0.1,8.3L56.7,170.8L56.7,170.8z"/>
</g>
</svg>