

<svg version="1.1" id="Layer_1" xmlns="http://www.w3.org/2000/svg" xmlns:xlink="http://www.w3.org/1999/xlink" x="0px" y="0px"
	 viewBox="0 0 80 80" style="enable-background:new 0 0 80 80;" xml:space="preserve">
<style type="text/css">
	.st0{fill:#00D8FF;}
	.st1{fill:none;stroke:#00D8FF;stroke-width:2.73;stroke-miterlimit:10;}
</style>
<circle class="st0" cx="40" cy="39.9" r="7.1"/>
<path class="st1" d="M40,25.5c9.5,0,18.4,1.4,25.1,3.7c8,2.8,13,7,13,10.8c0,4-5.2,8.4-13.9,11.3C57.6,53.4,49,54.5,40,54.5
	c-9.3,0-18.1-1.1-24.7-3.3C7,48.3,2,43.8,2,39.9S6.7,32,14.6,29.2C21.4,26.9,30.4,25.5,40,25.5L40,25.5z"/>
<path class="st1" d="M27.4,32.8c4.8-8.3,10.4-15.3,15.7-19.9C49.6,7.3,55.7,5.1,59,7c3.4,2,4.7,8.7,2.8,17.7
	c-1.4,6.7-4.7,14.8-9.2,22.6c-4.7,8-10,15.1-15.2,19.7c-6.6,5.8-13.1,7.9-16.4,6s-4.5-8-2.9-16.3C19.3,49.7,22.6,41.1,27.4,32.8
	L27.4,32.8z"/>
<path class="st1" d="M27.4,47.3c-4.8-8.2-8-16.6-9.4-23.5C16.4,15.4,17.6,9,20.9,7.1c3.4-2,9.9,0.3,16.7,6.3
	C42.7,18,48,25,52.6,32.7c4.7,8,8.1,16.2,9.5,23C63.8,64.4,62.4,71,59,73c-3.4,1.9-9.2-0.1-15.6-5.6C38,62.8,32.3,55.6,27.4,47.3
	L27.4,47.3z"/>
</svg>