
<svg version="1.1" id="Layer_1" xmlns="http://www.w3.org/2000/svg" xmlns:xlink="http://www.w3.org/1999/xlink" x="0px" y="0px"
	 viewBox="0 0 80 80" style="enable-background:new 0 0 80 80;" xml:space="preserve">
<style type="text/css">
	.st0{clip-path:url(#SVGID_2_);}
	.st1{fill:#00749A;}
</style>
<g>
	<defs>
		<rect id="SVGID_1_" width="80" height="80"/>
	</defs>
	<clipPath id="SVGID_2_">
		<use xlink:href="#SVGID_1_"  style="overflow:visible;"/>
	</clipPath>
	<g class="st0">
		<path class="st1" d="M5.7,40c0,13.1,7.5,25.1,19.3,30.9L8.7,26C6.7,30.4,5.7,35.2,5.7,40z"/>
		<path class="st1" d="M63.2,38.3c0-3.4-1-6.6-2.8-9.5c-1.8-2.8-3.4-5.2-3.4-8c-0.1-3.3,2.5-6,5.8-6.1h0.4
			c-14-12.8-35.7-11.8-48.5,2.1c-1.2,1.3-2.4,2.8-3.4,4.3c0.8,0,1.6,0,2.2,0c3.6,0,9.1-0.4,9.1-0.4c0.8-0.1,1.5,0.5,1.5,1.3
			c0.1,0.8-0.5,1.5-1.3,1.5l0,0c0,0-1.9,0.2-3.9,0.3l12.5,37.2L39,38.5l-5.3-14.6c-1.8-0.1-3.6-0.3-3.6-0.3
			c-1.9-0.1-1.6-2.9,0.2-2.8c0,0,5.7,0.4,9,0.4c3.6,0,9.1-0.4,9.1-0.4c0.8-0.1,1.5,0.5,1.5,1.3c0.1,0.8-0.5,1.5-1.3,1.5l0,0
			c0,0-1.9,0.2-3.9,0.3l12.4,36.9l3.4-11.4C62,44.6,63.2,41.2,63.2,38.3z"/>
		<path class="st1" d="M40.6,43L30.3,72.9c6.9,2,14.3,1.9,21.1-0.5c-0.1-0.2-0.2-0.3-0.2-0.5L40.6,43z"/>
		<path class="st1" d="M70.1,23.5c0.2,1.2,0.2,2.4,0.2,3.5c-0.1,4.2-0.9,8.4-2.6,12.3L57.2,69.7C73.3,60.3,79,39.9,70.1,23.5z"/>
		<path class="st1" d="M40,0C17.9,0,0,17.9,0,40s17.9,40,40,40s40-17.9,40-40C80,17.9,62.1,0,40,0z M40,78.2
			C18.9,78.2,1.8,61.1,1.8,40S18.9,1.8,40,1.8S78.2,18.9,78.2,40C78.1,61.1,61.1,78.1,40,78.2z"/>
	</g>
</g>
</svg>
